# xmcd
#
# Track frame offsets:
#	150
#	19389
#	34932
#	52267
#	67275
#	83704
#	99096
#	118333
#	133874
#	151209
#	166218
#	182647
#
# Disc length: 2640 seconds
#
# Revision: 2
# Processed by: cddbd v1.5.2PL0 Copyright (c) Steve Scherf et al.
# Submitted via: audiograbber 1.83.01
#
DISCID=a70a4e0c
DTITLE=Various Artist - CB20058 Vol. 58
DYEAR=1900
DGENRE=Country
TTITLE0=John Michael Montgomery - Hold on to Me (Guide Vocals)
TTITLE1=Bill Engval - I'm a Cowboy (Guide Vocals)
TTITLE2=Jo Dee Messina - Stand Beside Me (Guide Vocals)
TTITLE3=Vince Gill - Kindly Keep it Country (Guide Vocals)
TTITLE4=Jenny Simpson - Ticket Out of Kansas (Guide Vocals)
TTITLE5=Mark Nesler - Slow Down (Guide Vocals)
TTITLE6=John Michael Montgomery - Hold on to Me
TTITLE7=Bill Engval - I'm a Cowboy
TTITLE8=Jo Dee Messina - Stand Beside Me
TTITLE9=Vince Gill - Kindly Keep it Country
TTITLE10=Jenny Simpson - Ticket out of Kansas
TTITLE11=Mark Nesler - Slow Down
EXTD=
EXTT0=
EXTT1=
EXTT2=
EXTT3=
EXTT4=
EXTT5=
EXTT6=
EXTT7=
EXTT8=
EXTT9=
EXTT10=
EXTT11=
PLAYORDER=
